<svg width="128" height="128" viewBox="0 0 128 128" fill="none" xmlns="http://www.w3.org/2000/svg">
<rect width="128" height="128" rx="16" fill="#D9D9D9"/>
<path d="M103.24 48.2H99.112C98.92 45.064 98.44 42.472 97.672 40.424C96.968 38.312 95.944 36.648 94.6 35.432C93.256 34.152 91.624 33.288 89.704 32.84C87.784 32.328 85.544 32.072 82.984 32.072C80.488 32.072 78.472 32.136 76.936 32.264C75.464 32.328 74.312 32.488 73.48 32.744C72.712 32.936 72.2 33.224 71.944 33.608C71.688 33.992 71.56 34.472 71.56 35.048V85.352C71.56 87.4 71.688 89.16 71.944 90.632C72.264 92.104 72.872 93.32 73.768 94.28C74.664 95.176 75.976 95.88 77.704 96.392C79.432 96.84 81.704 97.096 84.52 97.16V101H44.296V97.16C47.176 97.096 49.48 96.84 51.208 96.392C52.936 95.88 54.248 95.176 55.144 94.28C56.104 93.32 56.712 92.104 56.968 90.632C57.288 89.16 57.448 87.4 57.448 85.352V35.048C57.448 34.472 57.32 33.992 57.064 33.608C56.872 33.224 56.424 32.936 55.72 32.744C55.016 32.488 53.992 32.328 52.648 32.264C51.368 32.136 49.672 32.072 47.56 32.072C45.256 32.072 43.048 32.2 40.936 32.456C38.824 32.648 36.968 33.288 35.368 34.376C33.768 35.4 32.456 37 31.432 39.176C30.472 41.288 29.96 44.296 29.896 48.2H26.152L27.112 27.08H102.28L103.24 48.2Z" fill="#141414"/>
</svg>
