<svg width="128" height="128" viewBox="0 0 128 128" fill="none" xmlns="http://www.w3.org/2000/svg">
<rect width="128" height="128" fill="#D9D9D9"/>
<path d="M68.376 38.176V91.744C69.528 94.048 70.68 95.264 71.832 95.392H82.488V100H45.624V95.584H54.744C55.896 95.456 56.856 94.976 57.624 94.144C58.392 93.312 58.904 92.384 59.16 91.36V36.64C58.52 35.232 57.528 34.336 56.184 33.952C42.104 33.952 35.064 37.088 35.064 43.36V46.624H30.84V29.344H97.368V46.624H93.144V43.36C93.144 37.088 89.624 33.952 82.584 33.952H71.256C69.592 34.848 68.632 36.256 68.376 38.176Z" fill="#141414"/>
</svg>
